{
  "accessors": [
    {
      "bufferView": 2,
      "componentType": 5126,
      "count": 132,
      "max": [
        0.8755239844322205,
        0.8746449947357178,
        7.447281837463379
      ],
      "min": [
        -0.8685230016708374,
        -0.8694040179252625,
        6.992043972015381
      ],
      "type": "VEC3"
    },
    {
      "bufferView": 2,
      "byteOffset": 1584,
      "componentType": 5126,
      "count": 132,
      "max": [
        0.981020450592041,
        0.981020450592041,
        0.7040639519691467
      ],
      "min": [
        -0.981020450592041,
        -0.981020450592041,
        0.19389420747756958
      ],
      "type": "VEC3"
    },
    {
      "bufferView": 1,
      "componentType": 5126,
      "count": 132,
      "max": [
        1.0,
        0.75
      ],
      "min": [
        0.0,
        0.5625
      ],
      "type": "VEC2"
    },
    {
      "bufferView": 0,
      "componentType": 5125,
      "count": 576,
      "type": "SCALAR"
    },
    {
      "bufferView": 2,
      "byteOffset": 3168,
      "componentType": 5126,
      "count": 2535,
      "max": [
        1.2948249578475952,
        1.2948249578475952,
        7.098516941070557
      ],
      "min": [
        -1.2948249578475952,
        -1.2948249578475952,
        3.278043031692505
      ],
      "type": "VEC3"
    },
    {
      "bufferView": 2,
      "byteOffset": 33588,
      "componentType": 5126,
      "count": 2535,
      "max": [
        1.0,
        1.0,
        1.0
      ],
      "min": [
        -1.0,
        -1.0,
        -1.0
      ],
      "type": "VEC3"
    },
    {
      "bufferView": 1,
      "byteOffset": 1056,
      "componentType": 5126,
      "count": 2535,
      "max": [
        1.0,
        0.5625
      ],
      "min": [
        0.0,
        0.0
      ],
      "type": "VEC2"
    },
    {
      "bufferView": 0,
      "byteOffset": 2304,
      "componentType": 5125,
      "count": 14928,
      "type": "SCALAR"
    },
    {
      "bufferView": 2,
      "byteOffset": 64008,
      "componentType": 5126,
      "count": 576,
      "max": [
        1.4583090543746948,
        1.4583090543746948,
        3.277229070663452
      ],
      "min": [
        -1.4583090543746948,
        -1.4583090543746948,
        0.0
      ],
      "type": "VEC3"
    },
    {
      "bufferView": 2,
      "byteOffset": 70920,
      "componentType": 5126,
      "count": 576,
      "max": [
        1.0,
        1.0,
        0.9238970279693604
      ],
      "min": [
        -1.0,
        -1.0,
        -1.0
      ],
      "type": "VEC3"
    },
    {
      "bufferView": 3,
      "componentType": 5126,
      "count": 576,
      "max": [
        0.1337701380252838,
        1.0,
        0.9195839166641235,
        1.0
      ],
      "min": [
        -1.0,
        -1.0,
        -0.9195839166641235,
        -1.0
      ],
      "type": "VEC4"
    },
    {
      "bufferView": 1,
      "byteOffset": 21336,
      "componentType": 5126,
      "count": 576,
      "max": [
        0.9769120216369629,
        1.055251955986023
      ],
      "min": [
        0.04406699910759926,
        0.007069000042974949
      ],
      "type": "VEC2"
    },
    {
      "bufferView": 0,
      "byteOffset": 62016,
      "componentType": 5125,
      "count": 3444,
      "type": "SCALAR"
    },
    {
      "bufferView": 2,
      "byteOffset": 77832,
      "componentType": 5126,
      "count": 38853,
      "max": [
        1.3691329956054688,
        1.373095989227295,
        8.657710075378418
      ],
      "min": [
        -1.3711429834365845,
        -1.368698000907898,
        0.7901639938354492
      ],
      "type": "VEC3"
    },
    {
      "bufferView": 2,
      "byteOffset": 544068,
      "componentType": 5126,
      "count": 38853,
      "max": [
        1.0,
        1.0,
        1.0
      ],
      "min": [
        -1.0,
        -1.0,
        -1.0
      ],
      "type": "VEC3"
    },
    {
      "bufferView": 1,
      "byteOffset": 25944,
      "componentType": 5126,
      "count": 38853,
      "max": [
        1.0,
        1.0
      ],
      "min": [
        0.0,
        0.0
      ],
      "type": "VEC2"
    },
    {
      "bufferView": 0,
      "byteOffset": 75792,
      "componentType": 5125,
      "count": 215532,
      "type": "SCALAR"
    },
    {
      "bufferView": 2,
      "byteOffset": 1010304,
      "componentType": 5126,
      "count": 99,
      "max": [
        0.932790994644165,
        0.9319109916687012,
        6.986126899719238
      ],
      "min": [
        -0.925790011882782,
        -0.9266700148582458,
        6.643557071685791
      ],
      "type": "VEC3"
    },
    {
      "bufferView": 2,
      "byteOffset": 1011492,
      "componentType": 5126,
      "count": 99,
      "max": [
        1.0,
        1.0,
        0.09800711274147034
      ],
      "min": [
        -1.0,
        -1.0,
        -0.09800711274147034
      ],
      "type": "VEC3"
    },
    {
      "bufferView": 1,
      "byteOffset": 336768,
      "componentType": 5126,
      "count": 99,
      "max": [
        1.5341919660568237,
        0.9465109705924988
      ],
      "min": [
        -0.5612810254096985,
        0.05349000170826912
      ],
      "type": "VEC2"
    },
    {
      "bufferView": 0,
      "byteOffset": 937920,
      "componentType": 5125,
      "count": 384,
      "type": "SCALAR"
    },
    {
      "bufferView": 2,
      "byteOffset": 1012680,
      "componentType": 5126,
      "count": 120,
      "max": [
        0.7474409937858582,
        0.7358099818229675,
        4.740750789642334
      ],
      "min": [
        -0.7408890128135681,
        -0.7467799782752991,
        4.089906215667725
      ],
      "type": "VEC3"
    },
    {
      "bufferView": 2,
      "byteOffset": 1014120,
      "componentType": 5126,
      "count": 120,
      "max": [
        0.960899293422699,
        0.9795835614204407,
        0.8710080981254578
      ],
      "min": [
        -0.9618793725967407,
        -0.9641849398612976,
        0.03649938479065895
      ],
      "type": "VEC3"
    },
    {
      "bufferView": 3,
      "byteOffset": 9216,
      "componentType": 5126,
      "count": 120,
      "max": [
        0.9624730944633484,
        0.9599564671516418,
        0.35434451699256897,
        1.0
      ],
      "min": [
        -0.977665901184082,
        -0.9608910083770752,
        -0.31392914056777954,
        1.0
      ],
      "type": "VEC4"
    },
    {
      "bufferView": 1,
      "byteOffset": 337560,
      "componentType": 5126,
      "count": 120,
      "max": [
        0.9441760182380676,
        0.901790976524353
      ],
      "min": [
        0.0452749989926815,
        -0.027943000197410583
      ],
      "type": "VEC2"
    },
    {
      "bufferView": 0,
      "byteOffset": 939456,
      "componentType": 5125,
      "count": 480,
      "type": "SCALAR"
    },
    {
      "bufferView": 2,
      "byteOffset": 1015560,
      "componentType": 5126,
      "count": 18,
      "max": [
        0.13753199577331543,
        0.5731520056724548,
        8.41421127319336
      ],
      "min": [
        0.1057090014219284,
        -0.2436089962720871,
        8.321951866149902
      ],
      "type": "VEC3"
    },
    {
      "bufferView": 1,
      "byteOffset": 338520,
      "componentType": 5126,
      "count": 18,
      "max": [
        0.0,
        0.0
      ],
      "min": [
        0.0,
        0.0
      ],
      "type": "VEC2"
    },
    {
      "bufferView": 0,
      "byteOffset": 941376,
      "componentType": 5125,
      "count": 24,
      "type": "SCALAR"
    },
    {
      "bufferView": 2,
      "byteOffset": 1015776,
      "componentType": 5126,
      "count": 2454,
      "max": [
        1.3691329956054688,
        1.373095989227295,
        3.2265350818634033
      ],
      "min": [
        -1.3711429834365845,
        -1.3659100532531738,
        0.7969329953193665
      ],
      "type": "VEC3"
    },
    {
      "bufferView": 2,
      "byteOffset": 1045224,
      "componentType": 5126,
      "count": 2454,
      "max": [
        0.9999831914901733,
        0.9997795224189758,
        0.0
      ],
      "min": [
        -0.9997623562812805,
        -0.9988085627555847,
        -0.7050318121910095
      ],
      "type": "VEC3"
    },
    {
      "bufferView": 1,
      "byteOffset": 338664,
      "componentType": 5126,
      "count": 2454,
      "max": [
        0.9995589852333069,
        0.9289190173149109
      ],
      "min": [
        0.004914000164717436,
        0.00028700000257231295
      ],
      "type": "VEC2"
    },
    {
      "bufferView": 0,
      "byteOffset": 941472,
      "componentType": 5125,
      "count": 6996,
      "type": "SCALAR"
    },
    {
      "bufferView": 2,
      "byteOffset": 1074672,
      "componentType": 5126,
      "count": 80,
      "max": [
        0.7964169979095459,
        0.784509003162384,
        4.083858013153076
      ],
      "min": [
        -0.7895089983940125,
        -0.7954789996147156,
        3.997951030731201
      ],
      "type": "VEC3"
    },
    {
      "bufferView": 2,
      "byteOffset": 1075632,
      "componentType": 5126,
      "count": 80,
      "max": [
        1.0,
        1.0,
        0.0
      ],
      "min": [
        -1.0,
        -1.0,
        0.0
      ],
      "type": "VEC3"
    },
    {
      "bufferView": 1,
      "byteOffset": 358296,
      "componentType": 5126,
      "count": 80,
      "max": [
        0.8800560235977173,
        1.0406869649887085
      ],
      "min": [
        0.10952399671077728,
        0.034047000110149384
      ],
      "type": "VEC2"
    },
    {
      "bufferView": 0,
      "byteOffset": 969456,
      "componentType": 5125,
      "count": 240,
      "type": "SCALAR"
    }
  ],
  "asset": {
    "extras": {
      "author": "mbodeant43 (https://sketchfab.com/mbodeant43)",
      "license": "CC-BY-4.0 (http://creativecommons.org/licenses/by/4.0/)",
      "source": "https://sketchfab.com/3d-models/copa-libertadores-2021-86364bb90136400d9a707142b6395436",
      "title": "Copa libertadores 2021"
    },
    "generator": "Sketchfab-12.67.0",
    "version": "2.0"
  },
  "bufferViews": [
    {
      "buffer": 0,
      "byteLength": 970416,
      "name": "floatBufferViews",
      "target": 34963
    },
    {
      "buffer": 0,
      "byteLength": 358936,
      "byteOffset": 970416,
      "byteStride": 8,
      "name": "floatBufferViews",
      "target": 34962
    },
    {
      "buffer": 0,
      "byteLength": 1076592,
      "byteOffset": 1329352,
      "byteStride": 12,
      "name": "floatBufferViews",
      "target": 34962
    },
    {
      "buffer": 0,
      "byteLength": 11136,
      "byteOffset": 2405944,
      "byteStride": 16,
      "name": "floatBufferViews",
      "target": 34962
    }
  ],
  "buffers": [
    {
      "byteLength": 2417080,
      "uri": "scene.bin"
    }
  ],
  "images": [
    {
      "uri": "textures/Material.002_baseColor.png"
    },
    {
      "uri": "textures/Material.002_normal.png"
    },
    {
      "uri": "textures/Material.005_normal.png"
    },
    {
      "uri": "textures/Material.006_baseColor.png"
    }
  ],
  "materials": [
    {
      "doubleSided": true,
      "name": "Material",
      "pbrMetallicRoughness": {
        "roughnessFactor": 0.13
      }
    },
    {
      "doubleSided": true,
      "name": "Material.001",
      "pbrMetallicRoughness": {
        "roughnessFactor": 0.13
      }
    },
    {
      "doubleSided": true,
      "name": "Material.002",
      "normalTexture": {
        "index": 1
      },
      "pbrMetallicRoughness": {
        "baseColorTexture": {
          "index": 0
        },
        "metallicFactor": 0.0,
        "roughnessFactor": 0.36044026533875684
      }
    },
    {
      "doubleSided": true,
      "name": "Material.003",
      "pbrMetallicRoughness": {
        "roughnessFactor": 0.13
      }
    },
    {
      "doubleSided": true,
      "name": "Material.004",
      "pbrMetallicRoughness": {
        "roughnessFactor": 0.13
      }
    },
    {
      "doubleSided": true,
      "name": "Material.005",
      "normalTexture": {
        "index": 2
      },
      "pbrMetallicRoughness": {
        "roughnessFactor": 0.13
      }
    },
    {
      "doubleSided": true,
      "name": "Material.006",
      "pbrMetallicRoughness": {
        "baseColorTexture": {
          "index": 3
        },
        "roughnessFactor": 0.22059628258212793
      }
    },
    {
      "doubleSided": true,
      "name": "Material.008",
      "pbrMetallicRoughness": {
        "roughnessFactor": 0.13
      }
    }
  ],
  "meshes": [
    {
      "name": "Object_0",
      "primitives": [
        {
          "attributes": {
            "NORMAL": 1,
            "POSITION": 0,
            "TEXCOORD_0": 2
          },
          "indices": 3,
          "material": 0,
          "mode": 4
        }
      ]
    },
    {
      "name": "Object_1",
      "primitives": [
        {
          "attributes": {
            "NORMAL": 5,
            "POSITION": 4,
            "TEXCOORD_0": 6
          },
          "indices": 7,
          "material": 1,
          "mode": 4
        }
      ]
    },
    {
      "name": "Object_2",
      "primitives": [
        {
          "attributes": {
            "NORMAL": 9,
            "POSITION": 8,
            "TANGENT": 10,
            "TEXCOORD_0": 11
          },
          "indices": 12,
          "material": 2,
          "mode": 4
        }
      ]
    },
    {
      "name": "Object_3",
      "primitives": [
        {
          "attributes": {
            "NORMAL": 14,
            "POSITION": 13,
            "TEXCOORD_0": 15
          },
          "indices": 16,
          "material": 3,
          "mode": 4
        }
      ]
    },
    {
      "name": "Object_4",
      "primitives": [
        {
          "attributes": {
            "NORMAL": 18,
            "POSITION": 17,
            "TEXCOORD_0": 19
          },
          "indices": 20,
          "material": 4,
          "mode": 4
        }
      ]
    },
    {
      "name": "Object_5",
      "primitives": [
        {
          "attributes": {
            "NORMAL": 22,
            "POSITION": 21,
            "TANGENT": 23,
            "TEXCOORD_0": 24
          },
          "indices": 25,
          "material": 5,
          "mode": 4
        }
      ]
    },
    {
      "name": "Object_6",
      "primitives": [
        {
          "attributes": {
            "POSITION": 26,
            "TEXCOORD_0": 27
          },
          "indices": 28,
          "material": 6,
          "mode": 1
        }
      ]
    },
    {
      "name": "Object_7",
      "primitives": [
        {
          "attributes": {
            "NORMAL": 30,
            "POSITION": 29,
            "TEXCOORD_0": 31
          },
          "indices": 32,
          "material": 6,
          "mode": 4
        }
      ]
    },
    {
      "name": "Object_8",
      "primitives": [
        {
          "attributes": {
            "NORMAL": 34,
            "POSITION": 33,
            "TEXCOORD_0": 35
          },
          "indices": 36,
          "material": 7,
          "mode": 4
        }
      ]
    }
  ],
  "nodes": [
    {
      "children": [
        1
      ],
      "matrix": [
        1.0,
        0.0,
        0.0,
        0.0,
        0.0,
        2.220446049250313e-16,
        -1.0,
        0.0,
        0.0,
        1.0,
        2.220446049250313e-16,
        0.0,
        0.0,
        0.0,
        0.0,
        1.0
      ],
      "name": "Sketchfab_model"
    },
    {
      "children": [
        2,
        3,
        4,
        5,
        6,
        7,
        8,
        9,
        10
      ],
      "name": "copalibertadores.obj.cleaner.materialmerger.gles"
    },
    {
      "mesh": 0,
      "name": "Object_2"
    },
    {
      "mesh": 1,
      "name": "Object_3"
    },
    {
      "mesh": 2,
      "name": "Object_4"
    },
    {
      "mesh": 3,
      "name": "Object_5"
    },
    {
      "mesh": 4,
      "name": "Object_6"
    },
    {
      "mesh": 5,
      "name": "Object_7"
    },
    {
      "mesh": 6,
      "name": "Object_8"
    },
    {
      "mesh": 7,
      "name": "Object_9"
    },
    {
      "mesh": 8,
      "name": "Object_10"
    }
  ],
  "samplers": [
    {
      "magFilter": 9729,
      "minFilter": 9987,
      "wrapS": 10497,
      "wrapT": 10497
    }
  ],
  "scene": 0,
  "scenes": [
    {
      "name": "Sketchfab_Scene",
      "nodes": [
        0
      ]
    }
  ],
  "textures": [
    {
      "sampler": 0,
      "source": 0
    },
    {
      "sampler": 0,
      "source": 1
    },
    {
      "sampler": 0,
      "source": 2
    },
    {
      "sampler": 0,
      "source": 3
    }
  ]
}
